# xmcd
# 
# Track frame offsets:
#     150
#     12308
#     26006
#     41763
#     54550
# 
# Disc length: 974
# 
# Revision: 0
# Processed by: cddbd v1.5.2PL0 Copyright (c) Steve Scherf et al.
# Submitted via: fre:ac v1.0.17
# 
DISCID=3a03cc05
DTITLE=Sin After Sin - ...Godless Generation
DYEAR=2000
DGENRE=Rock
TTITLE0=I Go My Way
TTITLE1=Superstar
TTITLE2=Sleepless
TTITLE3=Never
TTITLE4=I Bomb The World
EXTD=
EXTT0=
EXTT1=
EXTT2=
EXTT3=
EXTT4=
PLAYORDER=
